<svg width="1200" height="760" viewBox="0 0 1200 760" fill="none" xmlns="http://www.w3.org/2000/svg">
  <rect width="1200" height="760" fill="#D9DEE2"/>
  <rect x="40" y="70" width="1120" height="620" rx="26" fill="#C6CDD3"/>
  <g transform="translate(260 180)">
    <rect x="120" y="190" width="560" height="34" rx="6" fill="#9EA9B3"/>
    <rect x="90" y="120" width="640" height="90" rx="18" fill="#F4F7FA" stroke="#A2AFBA" stroke-width="8"/>
    <rect x="650" y="70" width="70" height="180" rx="18" fill="#F4F7FA" stroke="#A2AFBA" stroke-width="8"/>
    <rect x="70" y="90" width="55" height="180" rx="16" fill="#F4F7FA" stroke="#A2AFBA" stroke-width="8"/>
    <path d="M180 224L110 460" stroke="#A2AFBA" stroke-width="10"/>
    <path d="M430 224L460 460" stroke="#A2AFBA" stroke-width="10"/>
    <path d="M640 224L700 460" stroke="#A2AFBA" stroke-width="10"/>
    <path d="M320 224L250 460" stroke="#A2AFBA" stroke-width="10"/>
    <circle cx="110" cy="470" r="14" fill="#8E9AA5"/>
    <circle cx="250" cy="470" r="14" fill="#8E9AA5"/>
    <circle cx="460" cy="470" r="14" fill="#8E9AA5"/>
    <circle cx="700" cy="470" r="14" fill="#8E9AA5"/>
  </g>
  <text x="590" y="410" text-anchor="middle" fill="#C352B0" fill-opacity="0.35" font-size="90" font-family="Arial" font-weight="700" transform="rotate(-16 590 410)">QUALI5CARE</text>
</svg>
